<?xml version="1.0" encoding="UTF-8"?>
<svg width="18px" height="4px" viewBox="0 0 18 4" version="1.1" xmlns="http://www.w3.org/2000/svg" xmlns:xlink="http://www.w3.org/1999/xlink">
    <!-- Generator: Sketch 55.2 (78181) - https://sketchapp.com -->
    <title>gengd</title>
    <desc>Created with Sketch.</desc>
    <g id="yem" stroke="none" stroke-width="1" fill="none" fill-rule="evenodd" fill-opacity="0.25">
        <g id="home" transform="translate(-341.000000, -200.000000)" fill="#000000" fill-rule="nonzero">
            <g id="gengd" transform="translate(341.000000, 200.000000)">
                <path d="M2.13196e-06,2.00001033 L2.13196e-06,2.00001033 C2.13196e-06,3.10458355 0.895433252,4.00001033 2.00000213,4.00001033 C3.10457528,4.00001033 4.00000213,3.10458355 4.00000213,2.00001033 C4.00000213,2.00001033 4.00000213,2.00001033 4.00000213,2.00001033 L4.00000213,2.00001033 C4.00000213,0.895441453 3.10457528,1.03328889e-05 2.00000213,1.03328889e-05 C0.895433252,1.03328889e-05 2.13196e-06,0.895441453 2.13196e-06,2.00001033 L2.13196e-06,2.00001033 Z M7.00000637,2.00001097 L7.00000637,2.00001097 C7.00000637,3.10458411 7.89543749,4.00001097 9.00000637,4.00001097 C10.1045795,4.00001097 11.0000064,3.10458411 11.0000064,2.00001097 L11.0000064,2.00001097 C11.0000064,0.89544209 10.1045795,1.09700312e-05 9.00000637,1.09700312e-05 C7.89543749,1.09700312e-05 7.00000637,0.89544209 7.00000637,2.00001097 L7.00000637,2.00001097 Z M14.0000106,2.00001097 L14.0000106,2.00001097 C14.0000106,3.10458411 14.8954417,4.00001097 16.0000106,4.00001097 C17.1045838,4.00001097 18.0000106,3.10458411 18.0000106,2.00001097 L18.0000106,2.00001097 C18.0000106,0.89544209 17.1045838,1.09700312e-05 16.0000106,1.09700312e-05 C14.8954417,1.09700312e-05 14.0000106,0.89544209 14.0000106,2.00001097 L14.0000106,2.00001097 Z" id="形状"></path>
            </g>
        </g>
    </g>
</svg>